<svg width="300" height="300" viewBox="0 0 300 300" fill="none" xmlns="http://www.w3.org/2000/svg">
<circle cx="147.5" cy="148.5" r="104.5" fill="white"/>
<path fill-rule="evenodd" clip-rule="evenodd" d="M258 150C258 209.647 209.647 258 150 258C90.3532 258 42 209.647 42 150C42 90.3532 90.3532 42 150 42C209.647 42 258 90.3532 258 150ZM150 250.961C205.759 250.961 250.961 205.759 250.961 150C250.961 94.2407 205.759 49.0388 150 49.0388C94.2407 49.0388 49.0388 94.2407 49.0388 150C49.0388 205.759 94.2407 250.961 150 250.961Z" fill="#95754C"/>
<path d="M147.338 85.1328C131.944 86.6276 117.87 94.5089 108.553 106.874C102.845 114.426 99.4289 122.754 97.9147 132.693C97.4294 135.857 97.4294 144.301 97.9147 147.446C98.9436 154.221 100.671 159.598 103.738 165.538C104.593 167.227 105.272 168.625 105.214 168.683C104.903 168.955 96.3812 173.517 95.7017 173.769C93.9741 174.409 93.1005 174.468 83.9768 174.604C74.6978 174.72 74.6589 174.72 73.8048 175.167C72.5236 175.865 71.1453 177.263 70.5435 178.486L70 179.573V190.638V201.703L70.5435 202.79C71.2424 204.246 72.8148 205.702 74.2707 206.284C75.4354 206.731 75.4742 206.75 85.4327 206.847C92.1881 206.925 95.6241 207.041 96.0123 207.177C96.3423 207.294 98.303 207.934 100.38 208.594C102.457 209.254 104.903 210.05 105.815 210.341C106.728 210.652 109.562 211.564 112.124 212.38C114.687 213.195 117.133 213.991 117.56 214.127C118.239 214.36 120.957 215.233 132.119 218.825C133.614 219.31 135.574 219.95 136.487 220.242C144.077 222.746 143.766 222.668 146.29 222.668C150.172 222.668 150.891 222.299 158.034 216.825C160.111 215.214 163.606 212.554 165.799 210.904C167.993 209.254 171.914 206.284 174.535 204.285C177.155 202.285 182.998 197.84 187.541 194.404C203.342 182.407 205.322 180.874 205.982 180.136C206.332 179.728 206.856 178.913 207.128 178.311C207.574 177.38 207.632 177.011 207.632 175.205C207.613 173.361 207.574 173.051 207.05 172.022C206.002 169.867 203.905 168.256 201.673 167.829C201.129 167.712 200.644 167.596 200.586 167.538C200.547 167.499 200.993 166.509 201.576 165.363C206.06 156.55 207.943 148.242 207.671 138.419C207.419 129.645 205.419 122.094 201.207 114.076C198.683 109.301 195.733 105.321 191.54 101.128C187.153 96.7607 183.251 93.8683 177.951 91.1506C172.322 88.2388 167.177 86.5305 160.849 85.5211C158.015 85.0552 150.308 84.8416 147.338 85.1328ZM155.802 89.5976C162.79 90.0829 169.682 91.9465 175.408 94.8971C188.919 101.847 198.353 113.882 201.809 128.519C202.857 133.003 202.974 134.168 202.974 140.166C202.954 145.874 202.799 147.621 201.867 151.523C200.392 157.773 197.325 164.47 193.539 169.634C192.355 171.265 192.666 171.051 183.367 176.875C181.872 177.807 179.795 179.127 178.747 179.806C176.321 181.378 176.321 181.378 176.185 180.699C176.126 180.408 175.835 179.554 175.564 178.816C175.234 177.943 175.136 177.438 175.272 177.38C175.602 177.282 178.786 175.05 180.261 173.885C182.3 172.274 185.774 168.683 187.502 166.373C192.044 160.316 194.879 153.522 196.024 145.893C196.47 142.845 196.47 136.905 196.024 133.857C194.607 124.462 190.666 116.367 184.26 109.728C180.32 105.651 176.884 103.128 172.108 100.76C168.09 98.7602 164.479 97.5954 159.781 96.7607C156.52 96.1784 150.949 96.0425 147.552 96.4695C132.488 98.3719 119.792 107.457 113.231 121.045C111.387 124.87 110.144 128.888 109.387 133.566C108.844 136.808 108.902 143.602 109.484 146.864C110.688 153.638 112.61 158.394 116.725 164.878L117.055 165.402L114.784 165.422C112.94 165.441 112.241 165.538 111.018 165.946C109.814 166.334 109.465 166.373 109.31 166.179C108.902 165.693 106.281 160.336 105.68 158.802C103.117 152.183 102.127 146.883 102.127 140.011C102.147 130.441 104.476 122.016 109.368 113.863C115.056 104.37 124.335 96.6054 134.448 92.8589C137.224 91.83 138.098 91.5583 140.466 90.9759C145.882 89.6559 150.541 89.2288 155.802 89.5976ZM150.269 103.613C150.269 106.214 150.483 106.972 151.415 107.515C152.579 108.194 154.307 107.651 154.715 106.447C154.831 106.117 154.928 104.797 154.928 103.516V101.187L156.811 101.323C159.781 101.536 164.266 102.662 167.352 103.963C168.148 104.293 169.041 104.681 169.352 104.797C169.643 104.914 169.876 105.147 169.876 105.283C169.876 105.438 169.39 106.389 168.789 107.399C168.206 108.408 167.663 109.534 167.605 109.903C167.372 111.281 168.497 112.504 169.973 112.504C170.924 112.504 171.778 111.63 173.04 109.34C173.564 108.408 174.088 107.651 174.224 107.651C174.748 107.651 178.048 110.349 180.358 112.698C182.824 115.183 185.134 118.134 184.959 118.58C184.901 118.696 184.027 119.279 182.998 119.861C181.97 120.444 180.902 121.162 180.65 121.472C179.504 122.831 180.572 125.083 182.358 125.122C182.921 125.122 184.047 124.617 185.91 123.491C186.531 123.103 187.191 122.792 187.347 122.792C187.677 122.792 188.841 125.374 189.734 128.131C190.511 130.519 191.21 133.916 191.365 136.012L191.482 137.74H188.977C186.24 137.759 185.833 137.876 185.192 138.827C184.454 139.953 184.901 141.525 186.104 142.108C186.551 142.321 187.386 142.399 189.055 142.399C190.356 142.399 191.443 142.457 191.501 142.554C191.637 142.787 191.113 146.805 190.686 148.747C189.929 152.085 187.948 157.346 187.424 157.346C187.269 157.346 186.24 156.822 185.134 156.181C183.833 155.444 182.882 155.017 182.494 155.017C181.154 155.017 180.164 156.046 180.164 157.424C180.164 158.375 180.844 159.054 183.076 160.336C184.085 160.918 184.94 161.52 184.978 161.656C185.075 162.122 182.416 165.422 180.184 167.635C177.951 169.848 174.476 172.585 174.088 172.429C173.952 172.371 173.389 171.498 172.826 170.488C171.603 168.314 171.138 167.829 170.128 167.693C168.75 167.518 167.546 168.528 167.546 169.886C167.546 170.178 167.954 171.168 168.439 172.061L169.332 173.711L168.284 173.594C167.721 173.517 166.479 173.342 165.508 173.187C164.557 173.031 162.887 172.759 161.82 172.585C160.752 172.429 159.102 172.158 158.131 172.002C157.18 171.847 155.511 171.595 154.443 171.42C153.375 171.265 151.667 170.993 150.658 170.818C149.648 170.663 148.037 170.411 147.066 170.255C124.412 166.703 124.179 166.664 123.616 166.12C122.665 165.228 120.142 161.811 120.239 161.559C120.297 161.423 121.171 160.86 122.18 160.277C123.209 159.714 124.238 159.035 124.451 158.802C125.383 157.812 125.072 155.929 123.869 155.308C122.879 154.784 122.219 154.939 120.045 156.201C118.919 156.841 117.89 157.327 117.735 157.269C117.463 157.171 117.308 156.841 116.259 154.24C114.997 151.154 113.774 145.835 113.774 143.447V142.399H116.123C117.89 142.399 118.628 142.321 119.132 142.088C120.278 141.545 120.705 140.108 120.083 138.905C119.579 137.934 118.938 137.74 116.201 137.74H113.774V136.711C113.774 135.488 114.376 131.974 114.92 129.975C115.716 127.024 117.21 123.22 117.696 122.928C117.87 122.812 118.666 123.161 120.083 123.938C121.287 124.598 122.452 125.122 122.762 125.122C124.141 125.122 125.15 123.938 124.975 122.54C124.839 121.531 124.354 121.065 122.18 119.842C121.171 119.279 120.297 118.696 120.239 118.561C120.083 118.192 122.724 114.833 124.839 112.679C127.402 110.097 130.624 107.515 131.11 107.709C131.245 107.767 131.828 108.641 132.41 109.689C132.993 110.718 133.711 111.786 134.021 112.038C135.011 112.873 136.759 112.523 137.36 111.339C137.807 110.485 137.71 109.65 137.069 108.583C136.759 108.078 136.487 107.612 136.487 107.554C136.487 107.496 136.234 107.03 135.904 106.525C135.594 106.001 135.322 105.457 135.322 105.302C135.322 104.778 140.699 102.759 144.155 101.983C145.979 101.575 149.881 101.07 150.134 101.187C150.211 101.226 150.269 102.313 150.269 103.613ZM121.326 170.857C124.374 171.342 127.712 171.866 128.722 172.022C129.731 172.177 131.051 172.391 131.634 172.488C132.216 172.585 133.536 172.798 134.546 172.954C135.555 173.109 137.263 173.381 138.331 173.555C139.399 173.711 141.068 173.982 142.019 174.138C145.475 174.681 150.599 175.497 152.987 175.865C170.652 178.641 169.72 178.428 170.924 179.923C171.468 180.602 171.526 180.796 171.526 182.077C171.526 183.281 171.448 183.591 170.982 184.29C170.691 184.737 170.089 185.3 169.623 185.533L168.808 185.979L145.319 186.076C132.41 186.134 121.675 186.251 121.481 186.348C121.287 186.445 120.957 186.853 120.743 187.299C120.219 188.289 120.375 189.24 121.19 189.997L121.772 190.541H127.557H133.342L136.797 193.2C144.232 198.888 147.921 201.567 148.639 201.819C149.668 202.169 151.551 202.13 152.482 201.722C153.142 201.451 154.987 200.305 162.654 195.452C163.683 194.792 165.333 193.763 166.284 193.162C167.255 192.56 170.342 190.599 173.176 188.794C176.01 186.989 179.116 185.028 180.067 184.426C181.038 183.824 182.668 182.796 183.717 182.136C199.382 172.196 199.013 172.429 200.042 172.352C201.207 172.255 202.061 172.701 202.702 173.691C203.206 174.507 203.148 176.234 202.585 176.991C202.372 177.263 199.538 179.515 196.276 181.98C193.015 184.446 187.075 188.949 183.076 191.997C179.077 195.045 173.351 199.393 170.361 201.645C167.372 203.916 163.916 206.537 162.693 207.468C154.812 213.506 149.668 217.291 148.911 217.621C147.493 218.262 144.815 218.145 142.602 217.388C141.65 217.058 138.758 216.107 136.196 215.292C133.633 214.476 131.187 213.68 130.76 213.544C130.333 213.389 127.499 212.477 124.451 211.506C121.403 210.536 118.569 209.623 118.142 209.468C117.715 209.332 115.269 208.536 112.707 207.721C110.144 206.905 107.698 206.129 107.271 205.974C103.816 204.79 97.0218 202.712 95.8182 202.48C94.6341 202.247 92.4405 202.188 85.3939 202.188C77.5319 202.188 76.3866 202.15 75.8042 201.878C74.5425 201.276 74.5619 201.489 74.5619 190.657C74.5619 184.911 74.6395 180.66 74.756 180.369C74.853 180.097 75.1636 179.728 75.4742 179.534C75.9595 179.224 76.7749 179.185 85.3356 179.068C97.0606 178.933 95.3329 179.379 105.136 174.021C110.707 170.974 112.124 170.275 113.192 170.1C114.493 169.886 116.201 170.042 121.326 170.857ZM161.218 190.774C161.082 191.104 151.007 197.413 150.522 197.491C150.289 197.529 149.26 196.869 147.804 195.743C146.523 194.753 144.582 193.278 143.514 192.482C142.427 191.686 141.515 190.91 141.456 190.774C141.379 190.599 143.417 190.541 151.337 190.541C159.257 190.541 161.296 190.599 161.218 190.774Z" fill="#92764F"/>
<path d="M151.396 112.853C150.25 113.552 150.27 113.28 150.27 126.714V139.002L144.718 143.428C141.379 146.107 139.108 148.048 139.011 148.339C138.389 149.95 139.476 151.523 141.185 151.523C142 151.523 141.67 151.755 148.561 146.242C151.939 143.544 154.463 141.389 154.637 141.059C155.084 140.186 155.084 114.736 154.637 113.785C154.074 112.601 152.502 112.155 151.396 112.853Z" fill="#007BAF"/>
</svg>
