<?xml version="1.0" standalone="no"?>
<!DOCTYPE svg PUBLIC "-//W3C//DTD SVG 20010904//EN"
 "http://www.w3.org/TR/2001/REC-SVG-20010904/DTD/svg10.dtd">
<svg version="1.0" xmlns="http://www.w3.org/2000/svg"
 width="793.000000pt" height="759.000000pt" viewBox="0 0 793.000000 759.000000"
 preserveAspectRatio="xMidYMid meet">
<metadata>
Created by potrace 1.16, written by Peter Selinger 2001-2019
</metadata>
<g transform="translate(0.000000,759.000000) scale(0.100000,-0.100000)"
fill="#000000" stroke="none">
<path d="M4259 7230 c-793 -77 -1518 -483 -1998 -1120 -294 -389 -470 -818
-548 -1330 -25 -163 -25 -598 0 -760 53 -349 142 -626 300 -932 44 -87 79
-159 76 -162 -16 -14 -455 -249 -490 -262 -89 -33 -134 -36 -604 -43 -478 -6
-480 -6 -524 -29 -66 -36 -137 -108 -168 -171 l-28 -56 0 -570 0 -570 28 -56
c36 -75 117 -150 192 -180 60 -23 62 -24 575 -29 348 -4 525 -10 545 -17 17
-6 118 -39 225 -73 107 -34 233 -75 280 -90 47 -16 193 -63 325 -105 132 -42
258 -83 280 -90 35 -12 175 -57 750 -242 77 -25 178 -58 225 -73 391 -129 375
-125 505 -125 200 0 237 19 605 301 107 83 287 220 400 305 113 85 315 238
450 341 135 103 436 332 670 509 814 618 916 697 950 735 18 21 45 63 59 94
23 48 26 67 26 160 -1 95 -3 111 -30 164 -54 111 -162 194 -277 216 -28 6 -53
12 -56 15 -2 2 21 53 51 112 231 454 328 882 314 1388 -13 452 -116 841 -333
1254 -130 246 -282 451 -498 667 -226 225 -427 374 -700 514 -290 150 -555
238 -881 290 -146 24 -543 35 -696 20z m436 -230 c360 -25 715 -121 1010 -273
696 -358 1182 -978 1360 -1732 54 -231 60 -291 60 -600 -1 -294 -9 -384 -57
-585 -76 -322 -234 -667 -429 -933 -61 -84 -45 -73 -524 -373 -77 -48 -184
-116 -238 -151 -125 -81 -125 -81 -132 -46 -3 15 -18 59 -32 97 -17 45 -22 71
-15 74 17 5 181 120 257 180 105 83 284 268 373 387 234 312 380 662 439 1055
23 157 23 463 0 620 -73 484 -276 901 -606 1243 -203 210 -380 340 -626 462
-207 103 -393 163 -635 206 -168 30 -455 37 -630 15 -776 -98 -1430 -566
-1768 -1266 -95 -197 -159 -404 -198 -645 -28 -167 -25 -517 5 -685 62 -349
161 -594 373 -928 l17 -27 -117 -1 c-95 -1 -131 -6 -194 -27 -62 -20 -80 -22
-88 -12 -21 25 -156 301 -187 380 -132 341 -183 614 -183 968 1 493 121 927
373 1347 293 489 771 889 1292 1082 143 53 188 67 310 97 279 68 519 90 790
71z m-285 -722 c0 -134 11 -173 59 -201 60 -35 149 -7 170 55 6 17 11 85 11
151 l0 120 97 -7 c153 -11 384 -69 543 -136 41 -17 87 -37 103 -43 15 -6 27
-18 27 -25 0 -8 -25 -57 -56 -109 -30 -52 -58 -110 -61 -129 -12 -71 46 -134
122 -134 49 0 93 45 158 163 27 48 54 87 61 87 27 0 197 -139 316 -260 127
-128 246 -280 237 -303 -3 -6 -48 -36 -101 -66 -53 -30 -108 -67 -121 -83 -59
-70 -4 -186 88 -188 29 0 87 26 183 84 32 20 66 36 74 36 17 0 77 -133 123
-275 40 -123 76 -298 84 -406 l6 -89 -129 0 c-141 -1 -162 -7 -195 -56 -38
-58 -15 -139 47 -169 23 -11 66 -15 152 -15 67 0 123 -3 126 -8 7 -12 -20
-219 -42 -319 -39 -172 -141 -443 -168 -443 -8 0 -61 27 -118 60 -67 38 -116
60 -136 60 -69 0 -120 -53 -120 -124 0 -49 35 -84 150 -150 52 -30 96 -61 98
-68 5 -24 -132 -194 -247 -308 -115 -114 -294 -255 -314 -247 -7 3 -36 48 -65
100 -63 112 -87 137 -139 144 -71 9 -133 -43 -133 -113 0 -15 21 -66 46 -112
l46 -85 -54 6 c-29 4 -93 13 -143 21 -49 8 -135 22 -190 31 -55 8 -140 22
-190 30 -49 8 -135 21 -190 30 -55 8 -143 22 -195 31 -52 8 -135 21 -185 29
-1167 183 -1179 185 -1208 213 -49 46 -179 222 -174 235 3 7 48 36 100 66 53
29 106 64 117 76 48 51 32 148 -30 180 -51 27 -85 19 -197 -46 -58 -33 -111
-58 -119 -55 -14 5 -22 22 -76 156 -65 159 -128 433 -128 556 l0 54 121 0 c91
0 129 4 155 16 59 28 81 102 49 164 -26 50 -59 60 -200 60 l-125 0 0 53 c0 63
31 244 59 347 41 152 118 348 143 363 9 6 50 -12 123 -52 62 -34 122 -61 138
-61 71 0 123 61 114 133 -7 52 -32 76 -144 139 -52 29 -97 59 -100 66 -8 19
128 192 237 303 132 133 298 266 323 256 7 -3 37 -48 67 -102 30 -53 67 -108
83 -121 51 -43 141 -25 172 36 23 44 18 87 -15 142 -16 26 -30 50 -30 53 0 3
-13 27 -30 53 -16 27 -30 55 -30 63 0 27 277 131 455 171 94 21 295 47 308 41
4 -2 7 -58 7 -125z m-1491 -3464 c157 -25 329 -52 381 -60 52 -8 120 -19 150
-24 30 -5 98 -16 150 -24 52 -8 140 -22 195 -31 55 -8 141 -22 190 -30 178
-28 442 -70 565 -89 910 -143 862 -132 924 -209 28 -35 31 -45 31 -111 0 -62
-4 -78 -28 -114 -15 -23 -46 -52 -70 -64 l-42 -23 -1210 -5 c-665 -3 -1218 -9
-1228 -14 -10 -5 -27 -26 -38 -49 -27 -51 -19 -100 23 -139 l30 -28 298 0 298
0 178 -137 c383 -293 573 -431 610 -444 53 -18 150 -16 198 5 34 14 129 73
524 323 53 34 138 87 187 118 50 31 209 132 355 225 146 93 306 194 355 225
50 31 134 84 188 118 807 512 788 500 841 504 60 5 104 -18 137 -69 26 -42 23
-131 -6 -170 -11 -14 -157 -130 -325 -257 -168 -127 -474 -359 -680 -516 -206
-157 -501 -381 -655 -497 -154 -117 -332 -252 -395 -300 -406 -311 -671 -506
-710 -523 -73 -33 -211 -27 -325 12 -49 17 -198 66 -330 108 -132 42 -258 83
-280 90 -22 8 -168 55 -325 105 -157 50 -303 97 -325 105 -22 7 -148 48 -280
90 -132 42 -258 82 -280 90 -178 61 -528 168 -590 180 -61 12 -174 15 -537 15
-405 0 -464 2 -494 16 -65 31 -64 20 -64 578 0 296 4 515 10 530 5 14 21 33
37 43 25 16 67 18 508 24 604 7 515 -16 1020 260 287 157 360 193 415 202 67
11 155 3 419 -39z m2055 -1026 c-7 -17 -526 -342 -551 -346 -12 -2 -65 32
-140 90 -66 51 -166 127 -221 168 -56 41 -103 81 -106 88 -4 9 101 12 509 12
408 0 513 -3 509 -12z"/>
<path d="M4468 5802 c-59 -36 -58 -22 -58 -714 l0 -633 -286 -228 c-172 -138
-289 -238 -294 -253 -32 -83 24 -164 112 -164 42 0 25 -12 380 272 174 139
304 250 313 267 23 45 23 1356 0 1405 -29 61 -110 84 -167 48z"/>
</g>
</svg>
